<svg id="Capa_1" enable-background="new 0 0 512 512" height="512" viewBox="0 0 512 512" width="512" xmlns="http://www.w3.org/2000/svg" xmlns:xlink="http://www.w3.org/1999/xlink"><linearGradient id="SVGID_1_" gradientUnits="userSpaceOnUse" x1="256" x2="256" y1="512" y2="0"><stop offset="0" stop-color="#5558ff"/><stop offset="1" stop-color="#00c0ff"/></linearGradient><linearGradient id="SVGID_2_" gradientUnits="userSpaceOnUse" x1="256" x2="256" y1="362" y2="241"><stop offset="0" stop-color="#addcff"/><stop offset=".5028" stop-color="#eaf6ff"/><stop offset="1" stop-color="#eaf6ff"/></linearGradient><g><g><g><g><path d="m166 211h-30c-19.555 0-36.228 12.541-42.42 30l-12.58 15v91l12.58 15c6.192 17.458 22.865 30 42.42 30h30c8.284 0 15-6.716 15-15v-151c0-8.284-6.716-15-15-15zm210 181c19.555 0 36.228-12.542 42.42-30l22.58-15v-91l-22.58-15c-6.192-17.459-22.865-30-42.42-30h-30c-8.284 0-15 6.716-15 15v151c0 8.284 6.716 15 15 15zm-120-392c-124.065 0-225 101.383-225 226v30l30 16v-46c0-108.075 87.477-196 195-196s195 87.925 195 196v46l30-16v-30c0-124.617-100.935-226-225-226zm195 377c0 24.813-20.187 45-45 45h-90c-41.355 0-75 33.645-75 75 0 8.284 6.716 15 15 15s15-6.716 15-15c0-24.813 20.187-45 45-45h90c41.355 0 75-33.645 75-75v-30l-30-21z" fill="url(#SVGID_1_)"/></g></g></g><g><g><path d="m91 256c0-5.258.915-10.305 2.58-15h-47.58c-8.284 0-15 6.716-15 15v91c0 8.284 6.716 15 15 15h47.58c-1.665-4.695-2.58-9.742-2.58-15zm375-15h-47.58c1.665 4.695 2.58 9.742 2.58 15v91c0 5.258-.915 10.305-2.58 15h47.58c8.284 0 15-6.716 15-15v-91c0-8.284-6.716-15-15-15z" fill="url(#SVGID_2_)"/></g></g></g></svg>